<?xml version="1.0" standalone="no"?>
<!DOCTYPE svg PUBLIC "-//W3C//DTD SVG 20010904//EN"
 "http://www.w3.org/TR/2001/REC-SVG-20010904/DTD/svg10.dtd">
<svg version="1.0" xmlns="http://www.w3.org/2000/svg"
 width="1500.000000pt" height="1500.000000pt" viewBox="0 0 1500.000000 1500.000000"
 preserveAspectRatio="xMidYMid meet">
<metadata>
Created by potrace 1.11, written by Peter Selinger 2001-2013
</metadata>
<g transform="translate(0.000000,1500.000000) scale(0.100000,-0.100000)"
fill="#000000" stroke="none">
<path d="M3280 8770 l0 -5060 965 -2 965 -3 0 1568 0 1567 679 0 678 0 1176
-1570 1176 -1570 1201 0 c958 0 1200 3 1194 13 -4 6 -644 860 -1422 1896
l-1415 1884 29 21 c202 146 528 461 678 656 199 257 348 511 470 800 114 269
183 509 231 794 35 213 45 341 45 581 0 559 -130 1090 -389 1590 -508 982
-1445 1665 -2531 1844 -270 45 -237 44 -2017 48 l-1713 4 0 -5061z m3430 3117
c313 -57 566 -179 797 -385 359 -320 552 -802 513 -1282 -32 -386 -175 -703
-444 -978 -204 -210 -457 -356 -731 -424 -186 -46 -224 -48 -947 -48 l-688 0
0 1571 0 1571 708 -5 c586 -3 722 -7 792 -20z"/>
<path d="M1606 2631 c5 -5 384 -322 842 -705 519 -434 841 -696 854 -696 12 0
879 119 1927 265 1048 146 3312 461 5031 701 1719 239 3132 436 3140 438 8 2
-2644 4 -5894 5 -3481 1 -5906 -3 -5900 -8z"/>
</g>
</svg>
