<svg xmlns="http://www.w3.org/2000/svg" width="153" height="27" viewBox="0 0 153 27">
    <g fill="none" fill-rule="nonzero">
        <g transform="translate(0 .27)">
            <ellipse cx="13.024" cy="13.23" fill="#FFF" rx="12.838" ry="13.085"/>
            <path fill="#353535" d="M11.394 20.292V15.93h1.834l3.26 4.362h3.26l-3.871-5.297c1.223-.934 2.038-2.284 2.038-3.946 0-2.7-2.14-4.88-4.789-4.88H8.745v14.123h2.649zm0-11.424h1.732c1.223 0 2.14.935 2.14 2.181s-.917 2.181-2.14 2.181h-1.732V8.868z"/>
        </g>
        <path fill="#FFF" d="M112.874 20.042c-.204.52-.815 1.246-1.834 1.246-.713 0-1.936-.519-1.936-2.284V10.8h6.52V6.335h-6.52V1.662h-4.381v4.673h-3.159V10.8h3.159v8.204c0 4.258 3.26 6.75 6.419 6.75 3.26 0 5.298-2.18 6.113-4.57l-4.381-1.142zM58.466 6.438v.831c-1.223-.83-2.751-1.35-4.28-1.35-4.788 0-8.66 4.466-8.66 9.97 0 5.503 3.872 9.969 8.66 9.969 1.529 0 3.057-.52 4.28-1.35v.83h4.381v-18.9h-4.381zm-4.28 14.85c-2.343 0-4.279-2.388-4.279-5.4 0-3.011 1.936-5.4 4.28-5.4 2.343 0 4.279 2.389 4.279 5.4 0 3.012-1.936 5.4-4.28 5.4zM95.553 6.438V17.55c0 2.077-1.63 3.738-3.668 3.738-2.038 0-3.668-1.661-3.668-3.738V6.438h-4.381V17.55c0 4.57 3.668 8.308 8.15 8.308a7.423 7.423 0 0 0 3.669-.935v.415h4.381v-18.9h-4.483zM144.866 5.92a7.423 7.423 0 0 0-3.667.934v-.416h-4.382v18.9h4.382V14.227c0-2.077 1.63-3.739 3.667-3.739 2.038 0 3.668 1.662 3.668 3.739v11.111h4.382V14.227c0-4.57-3.668-8.308-8.05-8.308zM134.983 15.888c0-5.503-3.871-9.969-8.66-9.969-4.89 0-8.66 4.362-8.66 9.97 0 5.815 4.89 9.969 9.271 9.969 2.242 0 5.298-.727 7.642-4.258l-3.872-2.285c-3.26 4.05-7.743 1.35-8.253-2.077h12.43c0-.519.102-.934.102-1.35zm-4.992-2.7h-7.438c.815-3.738 6.623-4.465 7.438 0zM74.157 15.265l8.762-8.827h-6.317l-6.623 6.854V.104h-4.483v25.234h4.483v-8.1l7.846 8.1h6.215z"/>
        <path fill="#FFF" d="M32.892 25.338v-7.373h3.159l5.4 7.373h5.502l-6.521-8.826c2.038-1.454 3.362-3.947 3.362-6.647 0-4.465-3.566-8.1-7.947-8.1h-7.234v23.573h4.28zm0-19.211h2.853c1.936 0 3.566 1.661 3.566 3.635 0 1.973-1.63 3.634-3.566 3.634h-2.853v-7.27z"/>
    </g>
</svg>
