<svg xmlns="http://www.w3.org/2000/svg" xmlns:xlink="http://www.w3.org/1999/xlink" width="208" height="97" viewBox="0 0 208 97">
    <defs>
        <path id="a" d="M0 116.334h227.776V0H0z"/>
    </defs>
    <g fill="none" fill-rule="evenodd" transform="translate(-10 -10)">
        <path fill="#FFF" d="M20.254 40.3h-1.35v3.372h1.35c.928 0 1.687-.754 1.687-1.686a1.69 1.69 0 0 0-1.687-1.686"/>
        <path fill="#FFF" d="M22.898 49.112l-2.531-3.373h-1.462v3.373h-2.067V38.235h3.416a3.754 3.754 0 0 1 3.752 3.75 3.76 3.76 0 0 1-1.58 3.057l3.06 4.07h-2.588zM20.244 33.55c-5.594 0-10.121 4.534-10.121 10.125a10.117 10.117 0 0 0 10.12 10.12c5.592 0 10.123-4.53 10.123-10.12 0-5.59-4.531-10.125-10.122-10.125zM98.707 48.724c-.187.393-.604.966-1.449.966-.54 0-1.56-.362-1.56-1.738V41.66h5.1v-3.462h-5.1v-3.635h-3.463v3.635h-2.458v3.462h2.458v6.292c0 3.255 2.555 5.2 5.023 5.2 2.526 0 4.2-1.718 4.821-3.522l-3.372-.906zM52.575 49.679c-1.858 0-3.369-1.88-3.369-4.188 0-2.31 1.511-4.188 3.368-4.188 1.858 0 3.372 1.879 3.372 4.188 0 2.309-1.514 4.188-3.371 4.188zm3.37-11.481v.647a6.238 6.238 0 0 0-3.37-1.006c-3.767 0-6.83 3.434-6.83 7.652s3.064 7.65 6.83 7.65a6.229 6.229 0 0 0 3.37-1.005v.647h3.462V38.198h-3.461zM85.105 38.197v8.567a2.917 2.917 0 0 1-2.915 2.914 2.917 2.917 0 0 1-2.914-2.914v-8.567h-3.462v8.567a6.383 6.383 0 0 0 6.376 6.376 6.32 6.32 0 0 0 2.915-.71v.352h3.462V38.197h-3.462zM123.816 37.839c-1.05 0-2.04.26-2.913.712v-.354h-3.462v14.585h3.462v-8.566a2.917 2.917 0 0 1 2.913-2.916 2.918 2.918 0 0 1 2.914 2.916v8.566h3.462v-8.566a6.384 6.384 0 0 0-6.376-6.377M112.142 43.414h-5.838c.648-2.836 5.195-3.427 5.838 0m3.914 2.075c0-4.223-3.065-7.662-6.832-7.662-3.831 0-6.832 3.366-6.832 7.662 0 4.518 3.853 7.664 7.312 7.664 1.745 0 4.135-.598 6.015-3.264l-3.015-1.742c-2.556 3.123-6.12 1.003-6.474-1.638l9.759.002c.038-.34.067-.68.067-1.022M68.284 45.033l6.837-6.836h-4.895l-5.28 5.28V33.358h-3.462v19.424h3.462v-6.19l6.19 6.19h4.894zM35.852 38.022h2.259a2.83 2.83 0 0 1 2.826 2.822 2.829 2.829 0 0 1-2.826 2.825h-2.26v-5.647zm0 14.76v-5.65H38.3l4.238 5.65h4.334l-5.123-6.818a6.292 6.292 0 0 0 2.646-5.12 6.287 6.287 0 0 0-6.285-6.282H32.39v18.22h3.462z"/>
        <mask id="b" fill="#fff">
            <use xlink:href="#a"/>
        </mask>
        <path fill="#FFF" d="M150.436 77.223h.694V10.122h-.694zM135.421 89.273a1.511 1.511 0 0 0-1.244-.602c-.512 0-.92.197-1.229.591-.307.394-.462.962-.462 1.7 0 .74.16 1.31.477 1.71a1.51 1.51 0 0 0 1.245.603c.511 0 .921-.198 1.23-.592.306-.393.46-.96.46-1.7.001-.739-.159-1.31-.477-1.71m1.737 3.266a3.375 3.375 0 0 1-.659 1.175 2.85 2.85 0 0 1-1.016.743 3.208 3.208 0 0 1-1.296.259c-.477 0-.912-.085-1.302-.255a2.77 2.77 0 0 1-1.005-.736 3.422 3.422 0 0 1-.653-1.171c-.157-.46-.234-.983-.234-1.57 0-.587.078-1.112.234-1.575a3.38 3.38 0 0 1 .66-1.178 2.89 2.89 0 0 1 1.014-.74c.395-.174.831-.26 1.307-.26.471 0 .901.085 1.291.254.391.17.727.415 1.006.736.28.322.498.712.653 1.171.156.46.234.984.234 1.57 0 .588-.078 1.114-.234 1.576M139.943 88.765v1.358h2.188v1.42h-2.188l-.001 3.059h-1.44v-7.257h5.185v1.42zM146.071 88.765v1.358h2.189v1.42h-2.189v3.059h-1.44v-7.257h5.184v1.42zM150.862 94.602v-7.257h1.442l-.001 7.257zM158.08 89.46a1.542 1.542 0 0 0-.514-.581c-.21-.139-.482-.207-.814-.207-.27 0-.512.057-.726.171a1.546 1.546 0 0 0-.539.476 2.254 2.254 0 0 0-.332.726c-.076.28-.114.59-.114.929 0 .324.038.627.114.906.075.28.19.524.337.731.15.207.33.37.544.488.214.117.456.175.726.175.332 0 .603-.072.814-.217.211-.145.413-.38.607-.705l1.223.725a2.91 2.91 0 0 1-1.03 1.208c-.44.287-.992.431-1.656.431a3.08 3.08 0 0 1-1.296-.265 2.88 2.88 0 0 1-1-.752 3.404 3.404 0 0 1-.648-1.176 4.916 4.916 0 0 1-.228-1.549c0-.554.08-1.06.238-1.52a3.58 3.58 0 0 1 .664-1.181 2.995 2.995 0 0 1 1.016-.768c.394-.183.83-.274 1.307-.274.338 0 .647.04.923.119.277.08.524.19.741.332.218.141.41.31.571.507.162.198.302.414.42.649l-1.348.622zM160.63 94.602l.001-7.257h1.441v7.257zM166.997 90.29a53.17 53.17 0 0 1-.213-.623c-.065-.2-.115-.37-.149-.508a7.7 7.7 0 0 1-.15.508c-.067.2-.137.407-.214.622l-.466 1.316h1.66l-.468-1.316zm1.534 4.311l-.569-1.617h-2.655l-.57 1.617h-1.556l2.78-7.256h1.41l2.758 7.256h-1.598zM170.948 94.602l.001-7.257h1.441v5.837h3.64v1.42zM10.122 106.212v-7.257h1.441v7.257zM17.784 106.212l-2.664-3.96c-.09-.138-.186-.285-.285-.44a4.021 4.021 0 0 1-.223-.38c0 .07.002.173.005.307.004.135.005.282.005.44 0 .152.002.304.006.457.003.152.005.28.005.384v3.192H13.19l.001-7.257h1.401l2.562 3.836.284.44c.1.157.174.283.223.379 0-.07-.002-.17-.006-.305a14.744 14.744 0 0 1-.005-.431c0-.16-.002-.314-.005-.467a14.857 14.857 0 0 1-.006-.382l.001-3.07h1.441v7.257h-1.297zM25.179 106.212l-2.665-3.96-.285-.44a4.255 4.255 0 0 1-.223-.38c0 .07.001.173.005.307.003.135.005.282.005.44 0 .152.002.304.005.457.004.152.006.28.006.384l-.001 3.192h-1.442l.002-7.257h1.4l2.562 3.836.284.44c.1.157.174.283.222.379 0-.07-.001-.17-.005-.305a19.355 19.355 0 0 1-.005-.431c0-.16-.002-.314-.005-.467a14.302 14.302 0 0 1-.005-.382v-3.07h1.442l-.001 7.257h-1.296zM32.002 100.884a1.515 1.515 0 0 0-1.244-.602c-.512 0-.92.198-1.229.59-.307.396-.462.962-.462 1.7 0 .74.16 1.31.477 1.712a1.51 1.51 0 0 0 1.244.6c.512 0 .922-.195 1.23-.59.307-.393.461-.96.461-1.7s-.159-1.31-.477-1.71m1.737 3.266a3.391 3.391 0 0 1-.659 1.176 2.875 2.875 0 0 1-1.016.742 3.225 3.225 0 0 1-1.296.258c-.478 0-.912-.085-1.302-.254a2.763 2.763 0 0 1-1.005-.736 3.427 3.427 0 0 1-.653-1.171c-.157-.46-.234-.983-.234-1.571 0-.587.078-1.112.234-1.575.155-.463.375-.856.658-1.177a2.893 2.893 0 0 1 1.016-.741 3.22 3.22 0 0 1 1.307-.26c.47 0 .901.085 1.291.255.391.169.726.414 1.006.735.28.323.498.713.653 1.172.156.46.233.984.233 1.57a4.93 4.93 0 0 1-.233 1.577M38.242 106.212h-1.41l-2.583-7.257h1.608l1.368 4.199a17.737 17.737 0 0 1 .203.648c.032.107.059.209.084.306l.056.239a27.7 27.7 0 0 1 .14-.54c.059-.221.123-.44.192-.653l1.337-4.2h1.587l-2.582 7.258zM44.207 101.9a27.299 27.299 0 0 1-.212-.623 7.442 7.442 0 0 1-.15-.508 6.98 6.98 0 0 1-.15.508c-.066.201-.137.408-.214.622l-.466 1.316h1.66l-.468-1.316zm1.535 4.311l-.57-1.617h-2.655l-.57 1.617H40.39l2.78-7.256h1.41l2.758 7.256h-1.597zM50.751 100.376v5.836h-1.44v-5.836h-2.085v-1.421h5.61v1.421zM53.996 106.212l.001-7.257h1.441v7.257zM61.09 100.884a1.517 1.517 0 0 0-1.244-.602c-.512 0-.922.198-1.23.59-.307.396-.462.962-.462 1.7 0 .74.16 1.31.478 1.712a1.51 1.51 0 0 0 1.244.6c.512 0 .921-.195 1.23-.59.306-.393.461-.96.461-1.7s-.16-1.31-.477-1.71m1.736 3.266a3.374 3.374 0 0 1-.658 1.176 2.893 2.893 0 0 1-1.016.742 3.23 3.23 0 0 1-1.297.258 3.24 3.24 0 0 1-1.3-.254 2.775 2.775 0 0 1-1.007-.736 3.427 3.427 0 0 1-.653-1.171 4.878 4.878 0 0 1-.234-1.571c0-.587.078-1.112.235-1.575.155-.463.375-.856.658-1.177a2.884 2.884 0 0 1 1.016-.741c.394-.173.83-.26 1.306-.26.471 0 .902.085 1.291.255.391.169.727.414 1.007.735.28.323.497.713.652 1.172.157.46.234.984.234 1.57 0 .588-.077 1.114-.234 1.577M68.763 106.212l-2.665-3.96-.285-.44a4.516 4.516 0 0 1-.223-.38c0 .07.002.173.006.307.003.135.005.282.005.44 0 .152.001.304.005.457.004.152.005.28.005.384v3.192h-1.442l.001-7.257h1.4l2.562 3.836.284.44c.1.157.174.283.223.379 0-.07-.002-.17-.006-.305a19.355 19.355 0 0 1-.005-.431c0-.16-.001-.314-.005-.467a14.302 14.302 0 0 1-.005-.382v-3.07h1.442l-.001 7.257h-1.296zM75.95 103.164c-.291.152-.496.32-.618.503a1.08 1.08 0 0 0-.181.606c0 .236.09.422.275.561.183.138.457.207.823.207.45 0 .824-.107 1.12-.32l-1.42-1.557zm2.819 3.048l-.549-.59c-.575.47-1.28.704-2.117.704-.748 0-1.334-.157-1.757-.472-.425-.314-.636-.799-.636-1.456 0-.51.132-.929.395-1.255.263-.324.629-.6 1.093-.829l-.188-.207a2.85 2.85 0 0 1-.465-.679 1.804 1.804 0 0 1-.171-.793c0-.297.055-.556.166-.778.111-.22.264-.407.46-.559.195-.153.425-.267.689-.343.264-.075.548-.113.852-.113.443 0 .828.065 1.157.196.328.132.665.318 1.01.56l-.695 1.047a2.455 2.455 0 0 0-1.513-.518c-.215 0-.382.041-.504.124a.403.403 0 0 0-.181.352c0 .16.034.296.103.411.07.113.162.24.28.378l2.002 2.281c.159-.325.328-.727.507-1.203l1.172.373c-.117.352-.243.68-.378.985-.135.304-.282.58-.442.83l1.37 1.554h-1.66zM83.778 106.212v-7.257h5.03v1.42H85.22v1.245h2.084v1.42H85.22l-.001 1.752h3.745v1.42zM94.759 106.212l-2.664-3.96c-.09-.138-.186-.285-.285-.44a4.308 4.308 0 0 1-.224-.38c0 .07.002.173.006.307.003.135.005.282.005.44 0 .152.002.304.006.457.003.152.005.28.005.384l-.001 3.192h-1.441v-7.257h1.401l2.562 3.836.284.44c.1.157.174.283.222.379 0-.07-.002-.17-.005-.305a14.744 14.744 0 0 1-.005-.431c0-.16-.002-.314-.006-.467a20.332 20.332 0 0 1-.005-.382v-3.07h1.442v7.257h-1.297zM100.62 100.376l-.002 5.836h-1.44v-5.836h-2.085v-1.421h5.61v1.421zM103.76 106.212l.001-7.257h5.029v1.42h-3.588v1.245h2.084v1.42h-2.084v1.752h3.744v1.42zM114.259 100.587c-.184-.141-.438-.211-.765-.211h-1.904v1.856h1.904c.694 0 1.04-.313 1.041-.94 0-.328-.091-.564-.276-.705zm.096 5.625l-1.299-2.612h-1.466l-.001 2.612h-1.441l.001-7.257h3.381c.338 0 .66.047.963.14.305.094.571.237.799.43.229.195.408.434.539.72.131.288.198.625.198 1.012 0 .546-.117.994-.348 1.343-.233.348-.579.613-1.042.793l1.389 2.819h-1.673zM120.288 100.376v5.836h-1.442l.001-5.836h-2.084v-1.421h5.61v1.421zM126.117 101.9a27.442 27.442 0 0 1-.214-.623 6.91 6.91 0 0 1-.15-.508 6.98 6.98 0 0 1-.15.508c-.066.201-.136.408-.213.622l-.466 1.316h1.658l-.465-1.316zm1.532 4.311l-.569-1.617h-2.654l-.572 1.617H122.3l2.78-7.256h1.41l2.758 7.256h-1.598zM130.186 106.212v-7.257h1.442l-.001 7.257zM137.849 106.212l-2.665-3.96-.284-.44a4.308 4.308 0 0 1-.224-.38c0 .07.002.173.006.307.003.135.005.282.005.44 0 .152.002.304.005.457.004.152.005.28.005.384v3.192h-1.442v-7.257h1.4l2.564 3.836.284.44c.1.157.174.283.222.379 0-.07-.002-.17-.005-.305a14.608 14.608 0 0 1-.006-.431c0-.16-.001-.314-.005-.467a20.332 20.332 0 0 1-.005-.382v-3.07h1.442l-.001 7.257h-1.296zM145.99 106.212v-2.664c0-.097 0-.221.004-.373.005-.152.006-.308.006-.467 0-.158.001-.308.006-.445.002-.14.005-.242.005-.312-.055.139-.13.322-.225.55-.094.229-.189.445-.286.653l-1.476 3.224-1.469-3.224a15.188 15.188 0 0 1-.284-.653 30.55 30.55 0 0 1-.221-.55c0 .07.001.173.004.312.004.137.005.287.005.445 0 .159.001.315.005.467.004.152.006.276.006.373l-.001 2.664h-1.42v-7.257h1.4l1.51 3.287c.048.104.096.212.144.326a24.995 24.995 0 0 1 .264.648c.038.097.067.177.088.239.048-.14.118-.323.208-.555.09-.232.184-.451.281-.658l1.466-3.287h1.42v7.257h-1.44zM148.954 106.212l.001-7.257h5.03v1.42h-3.589v1.245h2.084v1.42h-2.084v1.752h3.744v1.42zM159.936 106.212l-2.664-3.96c-.09-.138-.186-.285-.285-.44a4.021 4.021 0 0 1-.223-.38c0 .07 0 .173.005.307.004.135.005.282.005.44 0 .152.002.304.006.457.003.152.005.28.005.384l-.001 3.192h-1.442v-7.257h1.402l2.562 3.836.284.44c.1.157.174.283.223.379 0-.07-.003-.17-.006-.305a14.744 14.744 0 0 1-.005-.431c0-.16-.002-.314-.005-.467a14.857 14.857 0 0 1-.006-.382v-3.07h1.442v7.257h-1.297zM165.796 100.376v5.836h-1.442l.001-5.836h-2.085v-1.421h5.611v1.421zM71.076 88.867c-.139-.116-.366-.175-.685-.175h-1.844v1.37h1.918c.303 0 .516-.064.637-.19a.68.68 0 0 0 .181-.49c0-.227-.068-.398-.207-.515m-.602 2.48h-1.928v1.875h1.928c.353 0 .614-.084.784-.253.17-.169.254-.4.254-.69 0-.622-.346-.933-1.038-.933m2.344 1.923c-.125.294-.3.54-.524.736a2.232 2.232 0 0 1-.815.446c-.317.101-.67.15-1.057.15h-3.297l.001-7.256h3.328c.705 0 1.266.164 1.68.493.415.328.622.802.622 1.425 0 .311-.068.587-.202.83a1.554 1.554 0 0 1-.566.58c.291.131.532.328.727.59.193.263.29.594.29.996 0 .38-.063.716-.187 1.01M77.229 90.29a29.246 29.246 0 0 1-.213-.623 7.362 7.362 0 0 1-.15-.508 7.053 7.053 0 0 1-.151.508c-.065.2-.136.408-.212.622l-.467 1.316h1.659l-.466-1.316zm1.534 4.311l-.57-1.617h-2.654l-.571 1.617h-1.555l2.78-7.256h1.409l2.758 7.256h-1.597zM85.291 88.977c-.185-.141-.439-.211-.766-.211h-1.903v1.856h1.903c.695 0 1.041-.313 1.041-.94 0-.33-.09-.564-.275-.705zm.095 5.625l-1.299-2.612h-1.466v2.612h-1.44v-7.257h3.38c.338 0 .661.047.964.14.304.094.571.237.798.43.23.194.408.434.54.72.131.288.197.625.197 1.012 0 .546-.116.993-.348 1.342-.232.349-.579.614-1.042.794l1.39 2.819h-1.674zM92.38 89.46a1.532 1.532 0 0 0-.514-.581c-.21-.138-.482-.207-.814-.207-.27 0-.512.057-.726.171a1.539 1.539 0 0 0-.539.477 2.256 2.256 0 0 0-.332.726 3.531 3.531 0 0 0-.114.928c0 .324.038.627.114.906.075.28.188.524.337.731.15.207.33.37.544.488.214.117.456.175.726.175.332 0 .603-.072.814-.217.211-.145.413-.38.607-.705l1.223.725c-.249.519-.593.922-1.032 1.208-.439.287-.99.431-1.653.431-.478 0-.91-.089-1.296-.265a2.865 2.865 0 0 1-1-.752 3.422 3.422 0 0 1-.65-1.176 4.945 4.945 0 0 1-.227-1.549c0-.554.08-1.06.238-1.519.16-.46.381-.853.664-1.182a2.974 2.974 0 0 1 1.017-.767 3.047 3.047 0 0 1 1.306-.275c.34 0 .647.04.923.12.277.079.524.189.741.331.218.142.41.311.571.507.162.198.302.414.42.649l-1.349.622zM94.826 94.602v-7.257h5.03v1.42h-3.589v1.245h2.084v1.42h-2.084v1.752h3.744v1.42zM101.213 94.602l.001-7.257h1.441v5.837h3.64v1.42zM111.314 89.273a1.513 1.513 0 0 0-1.244-.602c-.512 0-.922.198-1.23.591-.307.394-.461.962-.461 1.7 0 .74.159 1.31.477 1.712.318.4.732.6 1.244.6s.92-.197 1.23-.59c.306-.394.46-.962.46-1.7 0-.74-.158-1.31-.476-1.71m1.736 3.264a3.365 3.365 0 0 1-.658 1.177c-.283.322-.623.57-1.016.742a3.212 3.212 0 0 1-1.296.259c-.478 0-.912-.085-1.302-.254a2.775 2.775 0 0 1-1.005-.737 3.44 3.44 0 0 1-.654-1.171c-.156-.46-.233-.983-.233-1.57 0-.587.078-1.112.234-1.575.155-.464.375-.857.658-1.178a2.893 2.893 0 0 1 1.016-.74c.394-.174.83-.26 1.307-.26.47 0 .9.085 1.29.255.392.168.727.413 1.007.734.279.323.497.713.653 1.172.156.46.233.984.233 1.57 0 .588-.078 1.114-.234 1.576M118.987 94.602l-2.665-3.96-.285-.44a4.684 4.684 0 0 1-.223-.38c0 .07.002.173.005.307.004.134.006.282.006.44 0 .152 0 .304.005.457.004.152.005.279.005.383v3.193h-1.442v-7.257h1.4l2.563 3.836.284.44c.1.156.174.282.222.379 0-.07-.001-.171-.005-.306a19.262 19.262 0 0 1-.005-.43c0-.16-.002-.314-.005-.467-.004-.151-.006-.28-.006-.383v-3.07h1.443l-.001 7.258h-1.296zM124.938 90.29a29.077 29.077 0 0 1-.212-.623 7.524 7.524 0 0 1-.151-.508 6.91 6.91 0 0 1-.15.508c-.066.2-.136.408-.213.622l-.466 1.316h1.659l-.467-1.316zm1.534 4.311l-.57-1.617h-2.654l-.571 1.617h-1.555l2.78-7.256h1.41l2.757 7.256h-1.597zM53.189 88.765v1.358h2.188v1.42h-2.188v3.059h-1.441v-7.257h5.185v1.42zM62.025 89.46a1.542 1.542 0 0 0-.514-.581c-.211-.139-.482-.207-.814-.207-.27 0-.512.057-.726.171a1.555 1.555 0 0 0-.54.476 2.276 2.276 0 0 0-.331.726c-.076.28-.114.59-.114.929 0 .324.038.627.114.906.076.28.189.524.337.731.149.207.33.37.544.488.214.117.456.175.726.175.332 0 .603-.072.814-.217.21-.145.413-.38.607-.705l1.223.725a2.91 2.91 0 0 1-1.031 1.208c-.44.287-.991.431-1.654.431-.478 0-.91-.088-1.297-.265a2.88 2.88 0 0 1-1-.752 3.404 3.404 0 0 1-.648-1.176 4.916 4.916 0 0 1-.228-1.549c0-.554.079-1.06.238-1.52a3.58 3.58 0 0 1 .664-1.181 2.995 2.995 0 0 1 1.016-.768c.394-.183.83-.274 1.307-.274.338 0 .647.04.923.119.277.08.524.19.74.332.219.141.41.31.572.507.162.198.302.414.42.649l-1.348.622zM175.486 100.597c-.191-.147-.45-.221-.776-.221h-1.675l-.001 1.845h1.697c.693 0 1.04-.311 1.04-.933 0-.314-.095-.545-.285-.691m1.582 1.743a1.954 1.954 0 0 1-.552.742 2.24 2.24 0 0 1-.837.425c-.322.09-.67.135-1.045.135h-1.6v2.57h-1.442v-7.257h3.174c.339 0 .66.047.964.14.305.094.57.237.799.43.228.194.408.434.539.72.132.289.197.625.197 1.012 0 .422-.066.783-.197 1.083M180.831 101.9a23.143 23.143 0 0 1-.212-.623 7.524 7.524 0 0 1-.15-.508 6.511 6.511 0 0 1-.152.508c-.065.201-.136.408-.212.622l-.467 1.317h1.66l-.467-1.317zm1.534 4.312l-.57-1.617h-2.654l-.572 1.617h-1.555l2.78-7.257h1.41l2.758 7.257h-1.597zM188.997 100.587c-.184-.141-.439-.211-.765-.211h-1.905v1.856h1.904c.695 0 1.041-.313 1.041-.94 0-.328-.09-.563-.275-.705zm.095 5.626l-1.299-2.613h-1.466v2.613h-1.44v-7.258h3.38c.338 0 .66.047.964.14.304.094.571.237.8.43.227.194.406.434.538.72.131.288.197.625.197 1.012 0 .546-.116.994-.347 1.343-.233.348-.58.613-1.043.793l1.39 2.82h-1.674zM195.027 100.376l-.001 5.837h-1.441v-5.837h-2.084v-1.421h5.61v1.421zM202.762 106.213l-2.665-3.961-.285-.44a4.161 4.161 0 0 1-.223-.378c0 .068.001.17.005.305.003.135.005.282.005.44 0 .153.002.305.006.457.003.152.005.28.005.384l-.001 3.193h-1.442l.001-7.258h1.401l2.562 3.836.284.44c.1.157.174.283.222.379 0-.07-.001-.17-.005-.305a14.744 14.744 0 0 1-.005-.431c0-.158-.002-.314-.005-.467a14.857 14.857 0 0 1-.006-.382l.001-3.07h1.442l-.001 7.258h-1.296zM205.56 106.213l.002-7.258h5.03v1.42h-3.59v1.245h2.086l-.001 1.42h-2.084v1.752h3.744v1.42zM215.886 100.587c-.185-.141-.439-.211-.766-.211h-1.904v1.856h1.904c.695 0 1.041-.313 1.041-.94 0-.328-.091-.563-.275-.705zm.095 5.626l-1.3-2.613h-1.465v2.613h-1.441v-7.258h3.381c.338 0 .66.047.964.14.304.094.571.237.798.43.229.194.408.434.54.72.131.288.197.625.197 1.012 0 .546-.116.994-.348 1.343-.232.348-.579.613-1.042.793l1.39 2.82h-1.674zM202.014 41.363c0-.79-.562-1.263-1.503-1.263h-2.153v4.687h2.133c1.052 0 1.68-.573 1.68-1.53 0-.446-.214-.81-.591-1.01.279-.2.434-.519.434-.884zm-2.658-.317h1.115c.455 0 .514.208.514.388 0 .258-.154.383-.467.383h-1.162v-.77zm1.167 2.77h-1.167v-1.088h1.167c.414 0 .606.173.606.541 0 .358-.21.546-.606.546zm-6.361-2.777c.37 0 .628.153.794.47l.022.042.94-.433-.02-.047c-.331-.682-.927-1.043-1.723-1.043-1.23 0-2.088.992-2.088 2.416 0 1.467.807 2.414 2.056 2.414.813 0 1.399-.358 1.74-1.063l.022-.04-.856-.509-.026.044c-.243.406-.475.557-.855.557-.62 0-1.038-.564-1.038-1.403 0-.866.396-1.405 1.032-1.405zm-3.961.058V40.1h-3.381v4.687h1.016v-1.934h1.382v-.99h-1.382v-.766h2.365zm-12.678-2.025l-.093.212h34.166l-.093-.212c-1.482-3.404-2.595-8.588.537-13.949l.168-.287-.327.061a11.82 11.82 0 0 1-2.247.22c-3.05 0-5.32-.285-7.9-1.744l-.076-.043-.077.046c-2.264 1.37-4.578 2.038-7.072 2.038-2.49 0-4.8-.668-7.064-2.038l-.076-.046-.078.043c-2.58 1.46-4.848 1.744-7.9 1.744-.711 0-1.465-.07-2.24-.208l-.323-.056.165.282c3.127 5.351 2.014 10.533.53 13.937zm20.512-.09V25.244a13.447 13.447 0 0 0 1.802-.632v14.368h-1.802zm7.21 0V25.045c.586.125 1.182.213 1.803.271v13.664h-1.803zm6.373-13.73c-2.935 5.261-1.922 10.321-.482 13.73h-2.286v-13.57c.257.004.516.007.784.007.65 0 1.316-.055 1.984-.167zm-9.955-1.572c.605.337 1.195.61 1.779.832v14.47h-1.801V23.692c.007-.006.014-.009.022-.013zm-7.061 2.037a13.536 13.536 0 0 0 1.63-.114v13.378h-1.63V25.717zm-15.457 8.815h4.944v4.45h-6.2a17.948 17.948 0 0 0 1.256-4.45zm9.96 4.45h5.193v-4.45h-5.192v4.45zm5.194-9.466h-5.193V24.58a13.265 13.265 0 0 0 5.193 1.136v3.801zm-14.907-4.097c1.75 0 3.25-.094 4.697-.443v4.54h-5.081a14.746 14.746 0 0 0-1.595-4.256c.683.107 1.347.16 1.979.16zm-3.082 20.295a3.79 3.79 0 0 1-.041.345 4.876 4.876 0 0 0-.042.322c-.221 4.348.865 7.87 3.228 10.461 2.71 2.973 7.103 4.667 12.706 4.9h.214c.933.006 1.817.011 2.646.011.65 0 1.266-.003 1.849-.01 5.598-.234 9.99-1.928 12.702-4.9 2.363-2.593 3.45-6.114 3.227-10.47-.015-.148-.03-.234-.041-.313a4.08 4.08 0 0 1-.042-.346l-.011-.14H176.32l-.011.14zm31.345 12.45c-1.454 1.078-3.222 1.902-5.256 2.458V45.876h5.256v12.287zm-15.733-3.807c-.312.56-.888.885-1.592.885a1.68 1.68 0 0 1-.247-.017 4.754 4.754 0 0 1-.345-1.783 4.75 4.75 0 0 1 1.756-3.692c-.087.35-.174.655-.242.967-.244 1.122-.242 2.81.67 3.64zm-1.592 1.168c.784 0 1.448-.359 1.818-.994.232.153.512.26.847.302.66.083 1.58-.572 1.637-1.317.909-.643 1.61-.059 1.82.445.417.997-.46 1.716-1.59 2.39-.874.521-2.4.773-3.392.764a4.81 4.81 0 0 1-1.255-1.593c.038.001.076.003.115.003zm4.163-2.258c-.803-.603-.755-1.533-.4-2.095.553-.876 1.81-.528 2.959.115.932.52 1.908 1.608 2.18 2.592-.048.512-.175 1-.37 1.452-.324-1.008-1.373-1.154-2.02-.928a1.619 1.619 0 0 0-.128-.552c-.253-.603-1.126-1.338-2.221-.584zm4.75-.112c-.45-.859-1.27-1.678-2.052-2.115-.831-.464-1.922-.887-2.708-.562-.595-.37-.698-1.3.052-1.792a4.759 4.759 0 0 1 4.708 4.47zm-5.034-2.523a1.382 1.382 0 0 0-.355.39c-.42.662-.48 1.78.495 2.491-.06.558-.803 1.106-1.317 1.04-1.103-.142-1.623-1.166-1.641-2.423-.013-.934.252-1.748.459-2.642a4.714 4.714 0 0 1 2.228-.784 1.32 1.32 0 0 0 .13 1.928zm-2.37 6.758c1.005-.047 2.34-.302 3.168-.796.804-.479 1.655-1.076 1.812-1.874.584-.293 1.699-.154 1.84 1.02a4.754 4.754 0 0 1-4.166 2.46 4.722 4.722 0 0 1-2.653-.81zm5.302-8.254a5.04 5.04 0 0 0-2.648-.755c-.954 0-1.844.27-2.607.731v-3.236h5.255v3.26zm-10.513 11.486c-2.035-.557-3.801-1.38-5.255-2.459V45.876h5.255v14.746zm10.235.816c-1.316.02-2.825.012-4.486.002h-.21c-.093-.004-.186-.014-.281-.017v-3.652a5.016 5.016 0 0 0 2.607.733c.973 0 1.876-.28 2.648-.756v3.675c-.094.003-.186.013-.278.015zm20.793-17.96l-.69-.714c-2.931-3.043-7.081-10.659-1.788-17.693l.416-.553-2.001-2.803-.72.248c-1.076.371-2.196.568-3.24.568-3.023 0-5.004-.296-7.442-1.91l-.571-.377-.561.39c-2.158 1.497-4.238 2.195-6.545 2.195-2.31 0-4.39-.698-6.547-2.195l-.56-.39-.572.377c-2.437 1.614-4.42 1.91-7.443 1.91-1.042 0-2.162-.197-3.24-.568l-.717-.248-2.003 2.803.416.553c5.294 7.034 1.145 14.65-1.788 17.693l-.69.714.704.7c.376.376 1.045 1.072 1.597 1.652l-.003.091c-.002.061-.004.11-.014.21l-.006.063c-.271 5.074 1.053 9.253 3.929 12.416 3.052 3.354 7.82 5.36 13.459 5.67 1.398 1.272 2.817 2.327 2.879 2.376l.603.446.6-.448a42.237 42.237 0 0 0 2.872-2.374c5.639-.31 10.407-2.316 13.458-5.67 2.879-3.163 4.2-7.342 3.93-12.416l-.005-.064c-.01-.099-.012-.148-.015-.21l-.003-.09c.553-.58 1.222-1.276 1.599-1.652l.702-.7zm-3.341 1.983c.05.51.02.49.056.788.603 11.308-7.275 16.647-16.795 17.043-1.456 1.357-3.06 2.553-3.06 2.553s-1.61-1.196-3.065-2.553c-9.52-.396-17.4-5.735-16.796-17.043.035-.299.005-.279.056-.788-.546-.577-1.448-1.52-1.926-1.996 3.416-3.544 7.4-11.65 1.87-19l1.168-1.549c1.106.382 2.335.624 3.569.624 3.173 0 5.338-.315 8-2.078 2.105 1.462 4.388 2.376 7.122 2.376 2.733 0 5.016-.914 7.12-2.376 2.663 1.763 4.828 2.078 8 2.078 1.234 0 2.465-.242 3.57-.624l1.167 1.55c-5.53 7.348-1.544 15.455 1.87 19-.477.475-1.38 1.418-1.926 1.995z" mask="url(#b)"/>
    </g>
</svg>
