<svg xmlns="http://www.w3.org/2000/svg" viewBox="0 0 348.72 142.87"><defs><style>.cls-1{fill:none;}.cls-2{fill:#bf0000;}.cls-3{fill:#fff;}.cls-4{fill:#c99900;}.cls-5{fill:#ffd200;}.cls-6{fill:#002596;}.cls-7{fill:#8b2346;}.cls-8{fill:#cc092f;}</style></defs><title>Asset 2</title><g id="Layer_2" data-name="Layer 2"><g id="Logos"><rect class="cls-1" width="348.72" height="142.57"/><circle class="cls-2" cx="17.01" cy="56.38" r="17.01"/><path class="cls-3" d="M14.76,65.52V59.85h2.46l4.25,5.67h4.35l-5.14-6.84A6.3,6.3,0,0,0,17,47.24H11.29V65.52Zm0-14.81H17a2.83,2.83,0,1,1,0,5.67H14.76Z"/><path d="M148.85,64.86a2.64,2.64,0,0,1-5.06-1.3V53h8.57V47.18h-8.57V41.07H138v6.11h-4.13V53H138V63.56a8.47,8.47,0,0,0,16.54,2.82Z"/><path d="M77,47.18v1.09a10.49,10.49,0,0,0-5.67-1.69c-6.33,0-11.47,5.77-11.47,12.86S65,72.28,71.33,72.28A10.48,10.48,0,0,0,77,70.6v1.09h5.82V47.18ZM71.33,66.47c-3.12,0-5.66-3.16-5.66-7s2.54-7,5.66-7,5.67,3.16,5.67,7S74.46,66.47,71.33,66.47Z"/><path d="M126,47.18v14.4a4.9,4.9,0,0,1-9.79,0V47.18h-5.82v14.4A10.7,10.7,0,0,0,126,71.09v.59h5.82V47.18Z"/><path d="M191,46.57a10.65,10.65,0,0,0-4.9,1.2v-.59h-5.82V71.68h5.82V57.29a4.9,4.9,0,1,1,9.79,0V71.68h5.82V57.29A10.73,10.73,0,0,0,191,46.57Z"/><path d="M178,59.43c0-7.1-5.15-12.88-11.48-12.88S155,52.21,155,59.43c0,7.59,6.47,12.88,12.29,12.88a12,12,0,0,0,10.11-5.49l-5.06-2.93c-4.3,5.25-10.28,1.69-10.88-2.75h16.4A15.11,15.11,0,0,0,178,59.43Zm-6.58-3.49h-9.81C162.7,51.18,170.35,50.18,171.43,55.94Z"/><polygon points="97.73 58.66 109.22 47.17 100.99 47.17 92.12 56.05 92.12 39.04 86.31 39.04 86.31 71.68 92.12 71.68 92.12 61.28 102.52 71.68 110.75 71.68 97.73 58.66"/><path d="M43.23,71.68V62.19h4.11l7.12,9.49h7.28L53.15,60.23A10.55,10.55,0,0,0,47,41.07H37.42V71.68Zm0-24.8H47a4.75,4.75,0,1,1,0,9.49h-3.8Z"/><rect x="235.77" width="1.17" height="112.75"/><path class="cls-4" d="M321.79,18.24l.39.26c4.31,2.85,7.78,3.38,13.06,3.38a18,18,0,0,0,5.77-1l.5-.17L344,24.2l-.26.34c-9.3,12.36-2,25.69,3.09,31l.47.49-.48.48c-.67.67-1.84,1.88-2.71,2.79l-.29.31,0,.42v.15c0,.11,0,.22,0,.41v.08c.43,8.24-1.7,15-6.35,20.12-4.94,5.43-12.73,8.7-21.93,9.2l-.35,0-.26.24c-2.34,2.13-4.72,3.91-4.75,3.92l-.41.31-.41-.31c-.1-.07-2.45-1.82-4.76-3.93L304.4,90l-.35,0c-9.2-.51-17-3.77-21.93-9.2-4.65-5.11-6.78-11.88-6.35-20.12v-.08c0-.18,0-.28,0-.4v0h0v-.13l0-.42-.29-.31c-.82-.86-2-2.1-2.7-2.79l-.48-.48.47-.49c5.13-5.33,12.38-18.67,3.08-31l-.26-.34,2.51-3.51.5.17a17.94,17.94,0,0,0,5.77,1c5.28,0,8.75-.52,13.06-3.38l.39-.26.39.27a19.23,19.23,0,0,0,23.13,0Z"/><path class="cls-3" d="M281.52,48.75c2.92-6.68,4-15.26-.9-23.65a22,22,0,0,0,3.81.35c5,0,9-.46,13.4-3a22.55,22.55,0,0,0,24,0c4.43,2.51,8.38,3,13.4,3a20.35,20.35,0,0,0,3.82-.37c-4.91,8.41-3.83,17-.91,23.67Z"/><path class="cls-5" d="M338.15,48.75c-2.92-6.68-4-15.26.91-23.67a20.36,20.36,0,0,1-3.82.37c-5,0-9-.46-13.4-3a22.76,22.76,0,0,1-12,3.46h-.13v22.8Z"/><path class="cls-6" d="M331.92,81c5.58-4.08,8.88-10.59,8.39-20.1-.06-.54-.1-.57-.14-1.12h-8.25Z"/><path class="cls-7" d="M323.08,85.12A26.66,26.66,0,0,0,331.92,81V59.82h-8.83Z"/><path class="cls-7" d="M287.75,81a26.65,26.65,0,0,0,8.84,4.09V59.82h-8.84Z"/><path class="cls-6" d="M279.36,60.94c-.49,9.5,2.81,16,8.39,20.1V59.82H279.5c0,.55-.08.58-.14,1.12"/><path class="cls-7" d="M309.86,64.51a8.27,8.27,0,0,1,4.39,1.26v-6h-8.83v6a8.27,8.27,0,0,1,4.44-1.29"/><path class="cls-7" d="M309.86,81.16a8.28,8.28,0,0,1-4.44-1.29v6.59l.47,0c2.93,0,5.6,0,7.9,0l.47,0V79.89a8.27,8.27,0,0,1-4.39,1.27"/><path class="cls-6" d="M314.25,59.82v6a8.31,8.31,0,0,1,0,14.12v6.56a42.08,42.08,0,0,0,8.83-1.33V59.82Z"/><path class="cls-6" d="M301.54,72.84a8.31,8.31,0,0,1,3.89-7v-6h-8.83v25.3a42.15,42.15,0,0,0,8.83,1.33V79.87a8.31,8.31,0,0,1-3.89-7"/><path class="cls-8" d="M283.51,32.59a24.71,24.71,0,0,1,.23,8.43h8.58v7.73h8.43V41h9V32.59h-9V24a25.77,25.77,0,0,1-2.92-1.53,21.27,21.27,0,0,1-5.5,2.2v7.9Z"/><path class="cls-8" d="M327.87,48.75V24.81a20.59,20.59,0,0,1-3-.91V48.75Z"/><path class="cls-8" d="M315.75,48.75V25.15a22.11,22.11,0,0,1-3,.61v23Z"/><path class="cls-8" d="M333.93,48.75V25.44c-1,0-2.05-.07-3-.16V48.75Z"/><path class="cls-8" d="M321.81,48.75V22.51a26.12,26.12,0,0,1-3,1.57V48.75Z"/><path d="M343.11,59.38c.08.85,0,.82.09,1.32,1,19-12.22,28-28.22,28.64-2.45,2.28-5.14,4.29-5.14,4.29s-2.71-2-5.15-4.29c-16-.66-29.23-9.63-28.22-28.64.06-.5,0-.47.09-1.32-.92-1-2.44-2.56-3.24-3.35,5.74-6,12.43-19.58,3.14-31.93l2-2.6a18.59,18.59,0,0,0,6,1c5.33,0,9-.53,13.44-3.49a19.92,19.92,0,0,0,23.93,0c4.47,3,8.11,3.49,13.44,3.49a18.57,18.57,0,0,0,6-1l2,2.6c-9.29,12.35-2.6,26,3.14,31.93-.8.8-2.32,2.38-3.24,3.35M348.72,56l-1.16-1.2c-4.93-5.11-11.9-17.91-3-29.73l.7-.93-3.36-4.71-1.2.41a17,17,0,0,1-5.45,1c-5.08,0-8.41-.5-12.51-3.21l-1-.63-.94.66a18.24,18.24,0,0,1-22,0L297.9,17l-1,.63c-4.1,2.71-7.43,3.21-12.51,3.21a17,17,0,0,1-5.45-1l-1.2-.42-3.37,4.71.7.93c8.89,11.82,1.92,24.61-3,29.73L271,56l1.18,1.18c.63.63,1.76,1.8,2.69,2.77,0,.06,0,.11,0,.15a3.22,3.22,0,0,1,0,.35v.11c-.45,8.52,1.77,15.55,6.6,20.86,5.13,5.63,13.14,9,22.62,9.53,2.35,2.14,4.73,3.91,4.84,4l1,.75,1-.75c.11-.08,2.48-1.85,4.82-4,9.48-.52,17.49-3.89,22.61-9.53,4.84-5.32,7.06-12.34,6.61-20.86V60.5a3.49,3.49,0,0,1,0-.35s0-.1,0-.15c.93-1,2.06-2.14,2.69-2.77Z"/><path d="M279.62,61c0-.24,0-.37.07-.5s0-.22.05-.39h60.2c0,.16,0,.27.05.39s0,.26.07.49c.37,7.17-1.41,13-5.29,17.21-4.46,4.89-11.72,7.68-21,8.07-2.21,0-4.75,0-7.54,0h-.35c-9.27-.38-16.52-3.18-21-8.07-3.88-4.25-5.66-10-5.3-17.19m-.37-1.16c0,.29,0,.43-.07.58s0,.28-.07.54c-.37,7.31,1.45,13.22,5.42,17.58,4.55,5,11.94,7.84,21.35,8.23h.36l4.44,0,3.11,0c9.41-.39,16.79-3.23,21.34-8.23,4-4.36,5.8-10.27,5.42-17.59,0-.25,0-.39-.07-.53s0-.29-.07-.58l0-.23H279.27Z"/><path d="M281.1,25.44a21.59,21.59,0,0,0,3.32.27c5.16,0,9-.48,13.4-2.92a22.88,22.88,0,0,0,11.65,3.42V48.49H281.91c2.42-5.73,4.12-14.23-.8-23.06m28.88.77a22.94,22.94,0,0,0,11.87-3.42c4.38,2.44,8.23,2.92,13.39,2.92a20.61,20.61,0,0,0,3.33-.28c-4.93,8.84-3.23,17.34-.81,23.07H310Zm-28.7,22.44-.15.35h57.41l-.16-.35c-2.49-5.72-4.36-14.43.9-23.44l.28-.48-.55.1a20,20,0,0,1-3.78.37c-5.12,0-8.94-.48-13.27-2.93l-.13-.07-.13.08a22.3,22.3,0,0,1-23.75,0l-.13-.08-.13.07c-4.34,2.45-8.15,2.93-13.27,2.93a21.55,21.55,0,0,1-3.77-.35l-.54-.09.28.47c5.26,9,3.38,17.7.89,23.42"/><polygon points="302.59 52.05 302.59 50.37 296.91 50.37 296.91 58.25 298.62 58.25 298.62 55 300.94 55 300.94 53.34 298.62 53.34 298.62 52.05 302.59 52.05"/><path d="M309.25,52a1.39,1.39,0,0,1,1.34.79l0,.07,1.58-.73,0-.08a3,3,0,0,0-2.89-1.75c-2.06,0-3.51,1.67-3.51,4.06s1.36,4.06,3.45,4.06a3,3,0,0,0,2.93-1.79l0-.07-1.44-.85,0,.07a1.53,1.53,0,0,1-1.44.94c-1,0-1.74-.95-1.74-2.36s.66-2.36,1.73-2.36"/><path d="M319.94,56.61h-2V54.79h2c.69,0,1,.29,1,.91s-.35.92-1,.92M318,52h1.88c.76,0,.86.35.86.65s-.26.64-.79.64h-2Zm4.47.53c0-1.33-.94-2.12-2.53-2.12H316.3v7.88h3.58c1.77,0,2.83-1,2.83-2.57a1.85,1.85,0,0,0-1-1.7,1.79,1.79,0,0,0,.73-1.49"/><path d="M304.76,66.59c-.15.59-.29,1.1-.41,1.63-.41,1.88-.41,4.72,1.13,6.12a2.94,2.94,0,0,1-2.67,1.49l-.42,0a8,8,0,0,1,2.37-9.2m9.57,2.17c-1.4-.78-3.23-1.49-4.55-.95a1.76,1.76,0,0,1,.09-3,8,8,0,0,1,7.91,7.51,9.27,9.27,0,0,0-3.45-3.55m-.58,5.65a2.69,2.69,0,0,0-.22-.93,2.39,2.39,0,0,0-3.73-1,2.6,2.6,0,0,1-.67-3.52c.93-1.47,3-.88,5,.19a8.24,8.24,0,0,1,3.66,4.36,7.92,7.92,0,0,1-.62,2.44,2.59,2.59,0,0,0-3.39-1.56m-9.16-3.82a18,18,0,0,1,.77-4.44,8,8,0,0,1,3.74-1.32,2.22,2.22,0,0,0,.22,3.24,2.39,2.39,0,0,0-.6.65,3.08,3.08,0,0,0,.83,4.19,2.29,2.29,0,0,1-2.21,1.75c-1.85-.24-2.73-2-2.76-4.07m1.27,4a3.33,3.33,0,0,0,1.43.51A2.74,2.74,0,0,0,310,72.91a1.92,1.92,0,0,1,3.06.75c.7,1.68-.77,2.89-2.67,4a12.64,12.64,0,0,1-5.7,1.28,8,8,0,0,1-2.11-2.68h.19a3.43,3.43,0,0,0,3.06-1.67m3.94,6.16a8,8,0,0,1-4.46-1.36,12.63,12.63,0,0,0,5.32-1.34c1.35-.8,2.78-1.81,3-3.15a2.12,2.12,0,0,1,3.1,1.71,8,8,0,0,1-7,4.13m0,.51a8.5,8.5,0,1,0-8.5-8.5,8.51,8.51,0,0,0,8.5,8.5"/><path d="M2.55,132.27v2.4H6.41v2.51H2.55v5.4H0V129.76H9.16v2.51Z"/><path d="M18.15,133.49a2.7,2.7,0,0,0-.91-1,2.58,2.58,0,0,0-1.44-.37,2.69,2.69,0,0,0-1.28.3,2.74,2.74,0,0,0-1,.84,4,4,0,0,0-.59,1.28,6.22,6.22,0,0,0-.2,1.64,6.1,6.1,0,0,0,.2,1.6,4,4,0,0,0,.59,1.29,2.87,2.87,0,0,0,1,.86,2.62,2.62,0,0,0,1.28.31,2.48,2.48,0,0,0,1.44-.38,3.92,3.92,0,0,0,1.07-1.24l2.16,1.28A5.13,5.13,0,0,1,18.67,142a5.24,5.24,0,0,1-2.92.76,5.46,5.46,0,0,1-2.29-.47A5.09,5.09,0,0,1,11.69,141a6,6,0,0,1-1.14-2.08,8.66,8.66,0,0,1-.4-2.74,8.15,8.15,0,0,1,.42-2.68,6.3,6.3,0,0,1,1.17-2.09A5.29,5.29,0,0,1,13.53,130a5.41,5.41,0,0,1,2.31-.48,5.9,5.9,0,0,1,1.63.21,4.85,4.85,0,0,1,1.31.59,4.45,4.45,0,0,1,1,.9,6.09,6.09,0,0,1,.74,1.14Z"/><path d="M37.21,140.22a3.53,3.53,0,0,1-.93,1.3,4,4,0,0,1-1.44.79,6.19,6.19,0,0,1-1.87.27H27.15V129.76H33a4.65,4.65,0,0,1,3,.87,3,3,0,0,1,1.1,2.52,3,3,0,0,1-.36,1.46,2.73,2.73,0,0,1-1,1,3.22,3.22,0,0,1,1.28,1,2.89,2.89,0,0,1,.51,1.76A4.55,4.55,0,0,1,37.21,140.22Zm-4.14-3.4H29.66v3.31h3.41a1.88,1.88,0,0,0,1.38-.45,1.64,1.64,0,0,0,.45-1.22Q34.9,136.82,33.07,136.82Zm1.06-4.38a1.88,1.88,0,0,0-1.21-.31H29.66v2.42h3.39a1.52,1.52,0,0,0,1.13-.34,1.2,1.2,0,0,0,.32-.86A1.12,1.12,0,0,0,34.13,132.45Z"/><path d="M47.7,142.57l-1-2.86H42l-1,2.86H38.26l4.91-12.81h2.49l4.87,12.81ZM45,135q-.2-.57-.37-1.1t-.27-.9q-.09.37-.27.9t-.38,1.1l-.82,2.32h2.93Z"/><path d="M59.4,142.57,57.11,138H54.52v4.61H52V129.76h6a5.77,5.77,0,0,1,1.7.25,3.94,3.94,0,0,1,1.41.76A3.62,3.62,0,0,1,62,132a4.26,4.26,0,0,1,.35,1.78,4.2,4.2,0,0,1-.61,2.37,3.75,3.75,0,0,1-1.84,1.4l2.45,5Zm-.17-9.93a2.18,2.18,0,0,0-1.35-.37H54.52v3.28h3.36q1.84,0,1.84-1.66A1.48,1.48,0,0,0,59.23,132.64Z"/><path d="M71.75,133.49a2.7,2.7,0,0,0-.91-1,2.58,2.58,0,0,0-1.44-.37,2.69,2.69,0,0,0-1.28.3,2.74,2.74,0,0,0-1,.84,4,4,0,0,0-.59,1.28,6.23,6.23,0,0,0-.2,1.64,6.07,6.07,0,0,0,.2,1.6,4,4,0,0,0,.6,1.29,2.86,2.86,0,0,0,1,.86,2.62,2.62,0,0,0,1.28.31,2.48,2.48,0,0,0,1.44-.38,3.91,3.91,0,0,0,1.07-1.24l2.16,1.28A5.13,5.13,0,0,1,72.27,142a5.23,5.23,0,0,1-2.92.76,5.46,5.46,0,0,1-2.29-.47A5.08,5.08,0,0,1,65.29,141a6,6,0,0,1-1.14-2.08,8.7,8.7,0,0,1-.4-2.74,8.15,8.15,0,0,1,.42-2.68,6.32,6.32,0,0,1,1.17-2.09A5.29,5.29,0,0,1,67.14,130a5.41,5.41,0,0,1,2.31-.48,5.9,5.9,0,0,1,1.63.21,4.84,4.84,0,0,1,1.31.59,4.43,4.43,0,0,1,1,.9,6,6,0,0,1,.74,1.14Z"/><path d="M76.07,142.57V129.76H85v2.51H78.62v2.2H82.3V137H78.62v3.09h6.61v2.51Z"/><path d="M87.35,142.57V129.76H89.9v10.31h6.43v2.51Z"/><path d="M108.25,138.93a6,6,0,0,1-1.16,2.08,5.09,5.09,0,0,1-1.79,1.31,5.64,5.64,0,0,1-2.29.46,5.72,5.72,0,0,1-2.3-.45,4.91,4.91,0,0,1-1.78-1.3A6.06,6.06,0,0,1,97.78,139a9.57,9.57,0,0,1,0-5.56,6,6,0,0,1,1.16-2.08,5.09,5.09,0,0,1,1.79-1.31,6,6,0,0,1,4.59,0,4.93,4.93,0,0,1,1.78,1.3,6.07,6.07,0,0,1,1.15,2.07,9.58,9.58,0,0,1,0,5.56Zm-3.07-5.77a2.67,2.67,0,0,0-2.2-1.06,2.62,2.62,0,0,0-2.17,1,5.89,5.89,0,0,0,0,6,2.67,2.67,0,0,0,2.2,1.06,2.62,2.62,0,0,0,2.17-1,5.88,5.88,0,0,0,0-6Z"/><path d="M118.73,142.57l-4.7-7-.5-.78q-.26-.41-.39-.67c0,.12,0,.3,0,.54s0,.5,0,.78,0,.54,0,.81,0,.49,0,.68v5.64h-2.55V129.76h2.47l4.52,6.77.5.78a7.49,7.49,0,0,1,.39.67c0-.12,0-.3,0-.54s0-.49,0-.76,0-.56,0-.82,0-.49,0-.68v-5.42H121v12.81Z"/><path d="M132,142.57l-1-2.86h-4.69l-1,2.86H122.5l4.91-12.81h2.49l4.87,12.81ZM129.24,135q-.2-.57-.37-1.1t-.27-.9q-.09.37-.27.9T128,135l-.82,2.32h2.93Z"/><path d="M150.65,142.57v-4.7c0-.17,0-.39,0-.66s0-.54,0-.82,0-.54,0-.79,0-.43,0-.55l-.4,1q-.25.6-.51,1.15l-2.61,5.69-2.59-5.69c-.17-.37-.34-.75-.5-1.15l-.39-1c0,.12,0,.31,0,.55s0,.51,0,.79,0,.56,0,.82,0,.49,0,.66v4.7h-2.51V129.76h2.47l2.67,5.8.26.58.25.59.22.55.16.42q.13-.37.37-1t.5-1.16l2.59-5.8h2.51v12.81Z"/><path d="M164.11,142.57l-1-2.86h-4.69l-1,2.86h-2.75l4.91-12.81h2.49l4.87,12.81ZM161.4,135q-.2-.57-.37-1.1t-.27-.9q-.09.37-.27.9t-.38,1.1l-.82,2.32h2.93Z"/><path d="M168.56,142.57V129.76h2.54v12.81Z"/><path d="M182.09,142.57l-4.71-7-.5-.78a7.17,7.17,0,0,1-.39-.67c0,.12,0,.3,0,.54s0,.5,0,.78,0,.54,0,.81,0,.49,0,.68v5.64H174V129.76h2.47l4.53,6.77.5.78a7.52,7.52,0,0,1,.39.67c0-.12,0-.3,0-.54s0-.49,0-.76,0-.56,0-.82,0-.49,0-.68v-5.42h2.55v12.81Z"/><path d="M201.41,139.83a4.44,4.44,0,0,1-2.7,2.61,6.07,6.07,0,0,1-2.06.34,5.46,5.46,0,0,1-2.29-.47,5.08,5.08,0,0,1-1.77-1.33,6,6,0,0,1-1.14-2.08,8.68,8.68,0,0,1-.4-2.74,8.15,8.15,0,0,1,.42-2.68,6.31,6.31,0,0,1,1.17-2.09,5.29,5.29,0,0,1,1.79-1.35,5.41,5.41,0,0,1,2.31-.48,6.32,6.32,0,0,1,1.75.22,4.37,4.37,0,0,1,1.35.64,4.46,4.46,0,0,1,1,1,6.81,6.81,0,0,1,.74,1.33l-2.44,1a6.92,6.92,0,0,0-.39-.66,2.29,2.29,0,0,0-.49-.53,2.25,2.25,0,0,0-.67-.35,2.84,2.84,0,0,0-.9-.13,2.69,2.69,0,0,0-1.28.3,2.74,2.74,0,0,0-1,.84,4,4,0,0,0-.59,1.28,6.73,6.73,0,0,0,0,3.27,4,4,0,0,0,.59,1.3,2.86,2.86,0,0,0,1,.86,2.62,2.62,0,0,0,1.28.31,3.7,3.7,0,0,0,1.12-.15,2,2,0,0,0,.74-.4,1.77,1.77,0,0,0,.44-.61,2.87,2.87,0,0,0,.21-.78h-2v-2.38h4.6v1.68A5.87,5.87,0,0,1,201.41,139.83Z"/><path d="M203.88,142.57V129.76h2.55v10.31h6.43v2.51Z"/><path d="M224.78,138.93a6,6,0,0,1-1.16,2.08,5.09,5.09,0,0,1-1.79,1.31,5.64,5.64,0,0,1-2.29.46,5.72,5.72,0,0,1-2.3-.45,4.93,4.93,0,0,1-1.78-1.3,6.05,6.05,0,0,1-1.15-2.07,8.62,8.62,0,0,1-.41-2.77,8.72,8.72,0,0,1,.41-2.78,6,6,0,0,1,1.16-2.08,5.09,5.09,0,0,1,1.79-1.31,6,6,0,0,1,4.59,0,4.93,4.93,0,0,1,1.78,1.3,6.09,6.09,0,0,1,1.15,2.07,8.64,8.64,0,0,1,.41,2.77A8.74,8.74,0,0,1,224.78,138.93Zm-3.07-5.77a2.67,2.67,0,0,0-2.2-1.06,2.61,2.61,0,0,0-2.17,1,5.88,5.88,0,0,0,0,6,2.67,2.67,0,0,0,2.2,1.06,2.62,2.62,0,0,0,2.17-1,5.89,5.89,0,0,0,0-6Z"/><path d="M237.2,140.22a3.52,3.52,0,0,1-.93,1.3,4,4,0,0,1-1.44.79,6.19,6.19,0,0,1-1.87.27h-5.82V129.76H233a4.65,4.65,0,0,1,3,.87,3,3,0,0,1,1.1,2.52,3,3,0,0,1-.36,1.46,2.72,2.72,0,0,1-1,1,3.23,3.23,0,0,1,1.28,1,2.89,2.89,0,0,1,.51,1.76A4.55,4.55,0,0,1,237.2,140.22Zm-4.14-3.4h-3.41v3.31h3.41a1.88,1.88,0,0,0,1.38-.45,1.64,1.64,0,0,0,.45-1.22Q234.9,136.82,233.07,136.82Zm1.06-4.38a1.88,1.88,0,0,0-1.21-.31h-3.26v2.42H233a1.52,1.52,0,0,0,1.13-.34,1.2,1.2,0,0,0,.32-.86A1.12,1.12,0,0,0,234.13,132.45Z"/><path d="M247.7,142.57l-1-2.86H242l-1,2.86h-2.75l4.91-12.81h2.49l4.87,12.81ZM245,135q-.2-.57-.37-1.1t-.27-.9q-.09.37-.27.9t-.37,1.1l-.82,2.32h2.93Z"/><path d="M252,142.57V129.76h2.54v10.31h6.43v2.51Z"/><path d="M277.06,135.74a3.45,3.45,0,0,1-1,1.31,4,4,0,0,1-1.48.75,6.85,6.85,0,0,1-1.85.24h-2.83v4.54h-2.55V129.76H273a5.77,5.77,0,0,1,1.7.25,3.94,3.94,0,0,1,1.41.76,3.62,3.62,0,0,1,1,1.27,4.26,4.26,0,0,1,.35,1.78A4.75,4.75,0,0,1,277.06,135.74Zm-2.79-3.08a2.19,2.19,0,0,0-1.37-.39h-3v3.26h3q1.84,0,1.84-1.65A1.44,1.44,0,0,0,274.26,132.66Z"/><path d="M286.41,142.57l-1-2.86h-4.69l-1,2.86H277l4.91-12.81h2.49l4.87,12.81ZM283.7,135q-.2-.57-.37-1.1t-.27-.9q-.09.37-.27.9t-.37,1.1l-.82,2.32h2.93Z"/><path d="M298.29,142.57,296,138h-2.59v4.61h-2.54V129.76h6a5.78,5.78,0,0,1,1.7.25,3.94,3.94,0,0,1,1.41.76,3.62,3.62,0,0,1,1,1.27,4.27,4.27,0,0,1,.35,1.78,4.21,4.21,0,0,1-.61,2.37,3.76,3.76,0,0,1-1.84,1.4l2.45,5Zm-.17-9.93a2.17,2.17,0,0,0-1.35-.37h-3.36v3.28h3.36q1.84,0,1.84-1.66A1.48,1.48,0,0,0,298.12,132.64Z"/><path d="M308.77,132.27v10.31h-2.55V132.27h-3.68v-2.51h9.91v2.51Z"/><path d="M322.42,142.57l-4.71-7-.5-.78a7.46,7.46,0,0,1-.39-.67q0,.18,0,.54t0,.78q0,.4,0,.81c0,.27,0,.49,0,.68v5.64h-2.55V129.76h2.47l4.53,6.77.5.78a7.64,7.64,0,0,1,.39.67q0-.18,0-.54c0-.24,0-.49,0-.76s0-.56,0-.82,0-.49,0-.68v-5.42h2.55v12.81Z"/><path d="M327.37,142.57V129.76h8.88v2.51h-6.34v2.2h3.68V137h-3.68v3.09h6.61v2.51Z"/><path d="M345.76,142.57,343.47,138h-2.59v4.61h-2.55V129.76h6a5.77,5.77,0,0,1,1.7.25,3.94,3.94,0,0,1,1.41.76,3.62,3.62,0,0,1,1,1.27,4.26,4.26,0,0,1,.35,1.78,4.2,4.2,0,0,1-.61,2.37,3.75,3.75,0,0,1-1.84,1.4l2.45,5Zm-.17-9.93a2.18,2.18,0,0,0-1.35-.37h-3.36v3.28h3.36q1.84,0,1.84-1.66A1.48,1.48,0,0,0,345.6,132.64Z"/></g></g></svg>